# xmcd
#
# Track frame offsets:
# 150
# 14151
# 30873
# 44543
#
# Disc length: 977 seconds
#
# Revision: 1
# Processed by: cddbd v1.5.2PL0 Copyright (c) Steve Scherf et al.
# Submitted via: CedeCatalogueitor 2.6.0.6 http://personales.ya.com/cdcatalogueitor
#
DISCID=2a03cf04
DTITLE=The Chap - Even Your Friend
DYEAR=1900
DGENRE=
TTITLE0=Even Your Friend
TTITLE1=Friend For Life
TTITLE2=Ever Your Friend 
TTITLE3=Even Your Friend
EXTD=
EXTT0=
EXTT1=
EXTT2=
EXTT3=
PLAYORDER=
